<?xml version="1.0" encoding="UTF-8" standalone="no"?>
<!-- Created with Inkscape (http://www.inkscape.org/) -->

<svg
   width="1366"
   height="768"
   viewBox="0 0 1366 768"
   version="1.1"
   id="svg1"
   inkscape:version="1.4.3 (0d15f75, 2025-12-25)"
   sodipodi:docname="logo.svg"
   xmlns:inkscape="http://www.inkscape.org/namespaces/inkscape"
   xmlns:sodipodi="http://sodipodi.sourceforge.net/DTD/sodipodi-0.dtd"
   xmlns="http://www.w3.org/2000/svg"
   xmlns:svg="http://www.w3.org/2000/svg">
  <sodipodi:namedview
     id="namedview1"
     pagecolor="#ffffff"
     bordercolor="#cccccc"
     borderopacity="1"
     inkscape:showpageshadow="0"
     inkscape:pageopacity="1"
     inkscape:pagecheckerboard="0"
     inkscape:deskcolor="#d1d1d1"
     inkscape:document-units="px"
     inkscape:zoom="1.38"
     inkscape:cx="711.95652"
     inkscape:cy="438.76812"
     inkscape:window-width="1366"
     inkscape:window-height="697"
     inkscape:window-x="-8"
     inkscape:window-y="-8"
     inkscape:window-maximized="1"
     inkscape:current-layer="layer1" />
  <defs
     id="defs1">
    <filter
       inkscape:label="Raised Border"
       inkscape:menu="Bevels"
       inkscape:menu-tooltip="Strongly raised border around a flat surface"
       height="1.2129014"
       width="1.0629809"
       y="-0.10645071"
       x="-0.031490467"
       style="color-interpolation-filters:sRGB;"
       id="filter7">
      <feGaussianBlur
         stdDeviation="4"
         result="result1"
         id="feGaussianBlur2" />
      <feComposite
         in="result1"
         in2="result1"
         result="result4"
         operator="in"
         id="feComposite2" />
      <feGaussianBlur
         stdDeviation="2"
         result="result6"
         in="result4"
         id="feGaussianBlur3" />
      <feComposite
         operator="xor"
         in="result6"
         in2="result4"
         result="result8"
         id="feComposite3" />
      <feComposite
         operator="atop"
         result="fbSourceGraphic"
         in="result4"
         in2="result8"
         id="feComposite4" />
      <feSpecularLighting
         specularExponent="10"
         specularConstant="1.3"
         surfaceScale="3"
         lighting-color="rgb(255,255,255)"
         result="result1"
         in="fbSourceGraphic"
         id="feSpecularLighting4">
        <feDistantLight
           azimuth="235"
           elevation="55"
           id="feDistantLight4" />
      </feSpecularLighting>
      <feComposite
         operator="atop"
         result="result2"
         in="result1"
         in2="fbSourceGraphic"
         id="feComposite5" />
      <feComposite
         k3="1"
         k2="1"
         operator="arithmetic"
         result="result4"
         in="fbSourceGraphic"
         in2="result2"
         id="feComposite6" />
      <feComposite
         operator="over"
         in="result4"
         in2="SourceGraphic"
         id="feComposite7" />
      <feBlend
         mode="multiply"
         in2="result2"
         id="feBlend7" />
    </filter>
  </defs>
  <g
     inkscape:label="Camada 1"
     inkscape:groupmode="layer"
     id="layer1">
    <g
       id="g13"
       inkscape:export-filename="logo.png"
       inkscape:export-xdpi="96"
       inkscape:export-ydpi="96">
      <g
         id="g12"
         transform="translate(-5.8222656)">
        <text
           xml:space="preserve"
           style="font-stretch:condensed;font-size:64px;font-family:Impact;-inkscape-font-specification:'Impact Condensed';text-align:center;writing-mode:lr-tb;direction:ltr;text-anchor:middle;opacity:1;fill:#000000"
           x="689.05664"
           y="432.87274"
           id="text1"><tspan
             x="689.05664"
             y="432.87274"
             id="tspan2"
             style="font-style:normal;font-variant:normal;font-weight:normal;font-stretch:normal;font-family:'Candale Demo';-inkscape-font-specification:'Candale Demo';fill:#000000"
             sodipodi:role="line">Pousada Vila Charmosa</tspan></text>
        <text
           xml:space="preserve"
           style="font-stretch:condensed;font-size:64px;font-family:Impact;-inkscape-font-specification:'Impact Condensed';text-align:center;writing-mode:lr-tb;direction:ltr;text-anchor:middle;opacity:1;fill:#910515;fill-opacity:1"
           x="687.05664"
           y="428.87274"
           id="text10"><tspan
             x="687.05664"
             y="428.87274"
             id="tspan10"
             style="font-style:normal;font-variant:normal;font-weight:normal;font-stretch:normal;font-family:'Candale Demo';-inkscape-font-specification:'Candale Demo';fill:#910515;fill-opacity:1"
             sodipodi:role="line">Pousada Vila Charmosa</tspan></text>
      </g>
      <switch
         id="switch27"
         transform="matrix(0.42283636,0,0,0.36860819,577.29091,195.2377)">
        <g
           id="g27">
          <polygon
             points="298.48,446.04 98.046,53.416 15.03,440.53 "
             fill="#b5b1b0"
             id="polygon1" />
          <polygon
             points="278.9,435.69 99.761,86.844 24.94,431.2 "
             fill="#9c9c9c"
             id="polygon2" />
          <polygon
             points="210.83,303.15 278.9,435.69 33.72,431.29 72.153,312.72 127.77,141.4 "
             fill="#e0dfd8"
             id="polygon3" />
          <polygon
             points="127.77,141.4 211.78,304.99 74.614,305.14 "
             fill="#e3e0df"
             id="polygon4" />
          <polygon
             points="98.046,53.416 134.43,70.422 138.22,72.187 170.81,87.427 174.62,89.201 207.22,104.43 211,106.21 243.62,121.45 247.41,123.22 280.02,138.46 283.81,140.22 316.42,155.47 320.21,157.24 351.75,171.98 475.21,422.49 456.86,424.93 454.16,425.29 430.9,428.39 428.2,428.75 404.97,431.85 402.26,432.21 379.02,435.31 376.31,435.67 353.06,438.76 350.36,439.12 327.12,442.23 324.42,442.59 298.47,446.04 "
             fill="#e4c288"
             id="polygon5" />
          <polygon
             points="134.43,70.422 138.22,72.187 327.12,442.23 324.42,442.59 "
             fill="#cc7947"
             id="polygon6" />
          <polygon
             points="170.81,87.427 174.62,89.201 353.06,438.76 350.36,439.12 "
             fill="#cc7947"
             id="polygon7" />
          <polygon
             points="207.22,104.43 211,106.21 379.02,435.31 376.31,435.67 "
             fill="#cc7947"
             id="polygon8" />
          <polygon
             points="243.62,121.45 247.41,123.22 404.97,431.85 402.26,432.21 "
             fill="#cc7947"
             id="polygon9" />
          <polygon
             points="280.02,138.46 283.81,140.22 430.9,428.39 428.2,428.75 "
             fill="#cc7947"
             id="polygon10" />
          <polygon
             points="316.42,155.47 320.21,157.24 456.86,424.93 454.16,425.29 "
             fill="#cc7947"
             id="polygon11" />
          <polygon
             points="410.84,284.55 410.84,431 338.01,284.55 "
             fill="#707070"
             id="polygon12" />
          <polygon
             points="456.3,305.62 410.84,284.55 410.84,431 456.3,425 "
             fill="#b5b1b0"
             id="polygon13" />
          <polygon
             points="449.54,324.94 417.61,310.14 417.61,430.14 449.54,425.93 "
             fill="#2a4736"
             id="polygon14" />
          <polygon
             points="113.9,432.71 113.9,340.06 142.71,339.82 142.71,433.31 "
             fill="#2a4736"
             id="polygon15" />
          <polygon
             points="142.71,433.23 142.71,339.82 171.52,339.38 171.52,433.82 "
             fill="#2a4736"
             id="polygon16" />
          <polygon
             points="136.34,223.27 169.86,287.63 115.44,287.63 "
             fill="#2a4736"
             id="polygon17" />
          <polygon
             points="66.852,302.71 210.83,302.71 214,308.68 66.852,308.68 "
             fill="#9c9c9c"
             id="polygon18" />
          <polygon
             points="264.04,209.98 312.64,301.69 280.18,298.12 230.9,201.27 "
             fill="#2a4736"
             id="polygon19" />
          <polygon
             points="264.04,209.98 312.64,301.69 305.64,301.23 258.77,212.78 "
             fill="#b5b1b0"
             id="polygon20" />
          <polygon
             points="277.91,205.65 232.93,205.65 260.04,214.34 306.97,214.34 "
             fill="#8a8a8a"
             id="polygon21" />
          <polygon
             points="306.97,214.34 306.97,209.99 277.91,201.27 277.91,205.65 "
             fill="#e3e0df"
             id="polygon22" />
          <polygon
             points="254.15,204.74 256.92,205.47 239.09,218.79 238.1,216.74 "
             fill="#5a5b59"
             id="polygon23" />
          <polygon
             points="277.91,201.27 230.9,201.27 232.93,205.65 277.91,205.65 "
             fill="#9c9c9c"
             id="polygon24" />
          <g
             fill="#3cc250"
             id="g25">
            <path
               d="m 465.18,418.3 c -14.332,5.0996 -26.788,3.5462 -33.719,1.8464 -0.0439,0 -0.0879,-0.0147 -0.13184,-0.0293 -0.87927,-0.20526 -1.6559,-0.42499 -2.3447,-0.63016 -1.3482,-0.41034 -2.33,-0.7767 -2.8721,-0.98178 -0.0294,-0.0147 -0.044,-0.0147 -0.0587,-0.0294 -0.29306,-0.11719 -0.43964,-0.17578 -0.43964,-0.17578 0,0 -0.0147,0 -0.0439,0.0147 -0.23447,0.10245 -1.4068,0.58609 -3.3265,1.1723 -6.1254,1.8318 -19.959,4.5868 -36.196,-1.187 0,0 20.032,-19.783 24.429,-47.377 0,0 -6.111,4.1472 -17.834,2.6817 0,0 18.318,-29.792 18.567,-53.004 0,0 -4.3963,4.1618 -14.171,3.6636 0,0 16.12,-19.783 21,-40.299 0,0 -2.6817,3.0042 -9.1003,2.8137 0,0 12.28,-16.852 11.723,-35.537 0,0 -0.73279,1.8318 -6.0375,2.0223 0,0 8.0598,-13.013 10.991,-45.985 2.9308,32.972 10.991,45.985 10.991,45.985 -5.3048,-0.19052 -6.0375,-2.0223 -6.0375,-2.0223 -0.55682,18.684 11.723,35.537 11.723,35.537 -6.4186,0.19052 -9.1002,-2.8137 -9.1002,-2.8137 4.8798,20.516 20.999,40.299 20.999,40.299 -9.7744,0.49823 -14.171,-3.6636 -14.171,-3.6636 0.24908,23.212 18.567,53.004 18.567,53.004 -11.723,1.4654 -17.834,-2.6817 -17.834,-2.6817 1.1138,6.9755 3.2386,13.467 5.7738,19.256 1.7292,3.9567 3.6636,7.5909 5.6126,10.844 6.4478,10.756 13.042,17.277 13.042,17.277 z"
               id="path24" />
            <polygon
               points="422.44,415.62 421.21,441.26 425.61,441.26 430.01,441.26 428.79,415.62 425.61,415.62 "
               id="polygon25" />
          </g>
          <path
             d="m 452.14,401.03 c -0.55096,-0.91989 -1.0998,-1.8786 -1.6446,-2.859 -0.15677,-0.28204 -0.31085,-0.57547 -0.46658,-0.86224 -0.38818,-0.71515 -0.77313,-1.4432 -1.1532,-2.1877 -0.18546,-0.36334 -0.3689,-0.73163 -0.55157,-1.1018 -0.33978,-0.68744 -0.6727,-1.3906 -1.0022,-2.1008 -0.19794,-0.42761 -0.39725,-0.85205 -0.59048,-1.2877 -2.6285,-5.9058 -4.8344,-12.537 -5.9777,-19.701 0,0 6.1109,4.1472 17.834,2.6817 0,0 -18.318,-29.792 -18.567,-53.004 0,0 4.3963,4.1618 14.171,3.6636 0,0 -16.12,-19.783 -20.999,-40.299 0,0 2.6816,3.0042 9.1002,2.8137 0,0 -12.28,-16.852 -11.723,-35.537 0,0 0.73276,1.8318 6.0375,2.0223 0,0 -8.0598,-13.013 -10.991,-45.985 0,0 0.39569,92.908 -10.991,104.78 0,0 5.129,0.48358 7.8107,-2.4473 0,0 -1.949,41.765 -12.691,51.29 0,0 5.6126,1.4654 11.474,-3.8981 0,0 -1.9489,46.894 -14.903,53.488 0,0 8.309,4.1765 19.256,7.8254 0.16122,0.0586 0.32236,0.11719 0.48358,0.16113 0.0146,0.0147 0.0293,0.0147 0.0587,0.0294 1.6852,0.5567 3.429,1.0991 5.2169,1.6119 0.0439,0.0146 0.0879,0.0293 0.13184,0.0293 6.9315,1.6998 19.388,3.2532 33.719,-1.8464 -4e-5,-1e-5 -6.5945,-6.5212 -13.042,-17.277 z"
             fill="#206630"
             id="path25" />
          <g
             fill="#3cc250"
             id="g26">
            <path
               d="m 425.31,406.55 c -22.805,8.1148 -42.626,5.643 -53.655,2.9381 -0.0698,0 -0.13986,-0.0234 -0.20978,-0.0467 -1.3992,-0.32645 -2.635,-0.67618 -3.731,-1.0027 -2.1452,-0.65298 -3.7075,-1.236 -4.5702,-1.5623 -0.0468,-0.0233 -0.07,-0.0233 -0.0934,-0.0467 -0.46625,-0.18658 -0.69955,-0.27979 -0.69955,-0.27979 0,0 -0.0233,0 -0.0698,0.0233 -0.3732,0.16306 -2.2386,0.93265 -5.2933,1.8654 -9.747,2.9148 -31.759,7.2986 -57.596,-1.8888 0,0 31.876,-31.48 38.872,-75.388 0,0 -9.7238,6.5992 -28.378,4.2673 0,0 29.148,-47.406 29.544,-84.342 0,0 -6.9955,6.6225 -22.549,5.8296 0,0 25.65,-31.48 33.415,-64.125 0,0 -4.2673,4.7804 -14.481,4.4772 0,0 19.541,-26.816 18.655,-56.547 0,0 -1.1659,2.9148 -9.6071,3.2179 0,0 12.825,-20.707 17.489,-73.173 4.6637,52.466 17.489,73.173 17.489,73.173 -8.4412,-0.30309 -9.6072,-3.2179 -9.6072,-3.2179 -0.88605,29.731 18.655,56.547 18.655,56.547 -10.213,0.30318 -14.481,-4.4772 -14.481,-4.4772 7.7648,32.646 33.415,64.125 33.415,64.125 -15.553,0.79294 -22.549,-5.8296 -22.549,-5.8296 0.39639,36.936 29.544,84.342 29.544,84.342 -18.655,2.3318 -28.378,-4.2673 -28.378,-4.2673 1.7722,11.1 5.1534,21.43 9.1874,30.64 2.7515,6.296 5.8296,12.079 8.9309,17.255 10.26,17.116 20.753,27.492 20.753,27.492 z"
               id="path26" />
            <polygon
               points="357.29,402.28 355.35,443.09 362.35,443.09 369.34,443.09 367.4,402.28 362.35,402.28 "
               id="polygon26" />
          </g>
          <path
             d="m 404.55,379.06 c -0.87665,-1.4638 -1.7502,-2.9892 -2.617,-4.5494 -0.24945,-0.44867 -0.49457,-0.91568 -0.74237,-1.372 -0.61768,-1.138 -1.2302,-2.2963 -1.835,-3.481 -0.29507,-0.57819 -0.58701,-1.1642 -0.87769,-1.7532 -0.54071,-1.0938 -1.0705,-2.2127 -1.5948,-3.343 -0.31485,-0.6803 -0.63205,-1.3558 -0.93951,-2.0489 -4.1826,-9.3976 -7.6927,-19.949 -9.5118,-31.348 0,0 9.7236,6.5992 28.378,4.2673 0,0 -29.148,-47.406 -29.544,-84.342 0,0 6.9954,6.6225 22.549,5.8296 0,0 -25.65,-31.48 -33.415,-64.125 0,0 4.2671,4.7804 14.481,4.4772 0,0 -19.541,-26.816 -18.655,-56.547 0,0 1.166,2.9148 9.6072,3.2179 0,0 -12.825,-20.707 -17.489,-73.173 0,0 0.62961,147.84 -17.489,166.73 0,0 8.1614,0.76939 12.429,-3.8942 0,0 -3.1014,66.457 -20.194,81.614 0,0 8.9308,2.3318 18.258,-6.2026 0,0 -3.1012,74.618 -23.715,85.112 0,0 13.221,6.6457 30.64,12.452 0.25644,0.0932 0.51297,0.18643 0.76941,0.25644 0.0233,0.0234 0.0466,0.0234 0.0934,0.0467 2.6815,0.88596 5.4564,1.7489 8.3012,2.565 0.0699,0.0233 0.13995,0.0467 0.20978,0.0467 11.03,2.7048 30.85,5.1766 53.655,-2.9381 -2e-5,4e-5 -10.493,-10.377 -20.753,-27.492 z"
             fill="#206630"
             id="path27" />
          <rect
             y="441.16"
             width="500"
             height="5.4229999"
             id="rect27"
             x="0" />
        </g>
      </switch>
    </g>
  </g>
</svg>
